PathFileType   4   (X/Y/Z)
DataRate  CameraRate  NumFrames  NumMarkers  Units  OrigDataRate  OrigDataStartFrame  OrigNumFrames  
  120.0      120.0        11         37         mm      120.0          79        105
Frame#      Time                    midhip                           hip_r                           hip_l                          knee_r                          knee_l                         ankle_r                         ankle_l                         midasis                          asis_r                          asis_l                          psis_r                          psis_l                    epicondLat_r                    epicondLat_l                    epicondMed_r                    epicondMed_l                  malleolusLat_r                  malleolusLat_l                 malleolusMedv_r                 malleolusMedv_l                    sternalnotch                  xyphoidprocess                            neck                           toe_r                           toe_l                     thighwand_r                     thighwand_l                     upperleg1_r                     upperleg1_l                     upperleg2_r                     upperleg2_l                     shankwand_r                     shankwand_l                     lowerleg1_r                     lowerleg1_l                   subclavicle_r                   subclavicle_l            
              X1          Y1          Z1          X2          Y2          Z2          X3          Y3          Z3          X4          Y4          Z4          X5          Y5          Z5          X6          Y6          Z6          X7          Y7          Z7          X8          Y8          Z8          X9          Y9          Z9          X10          Y10          Z10          X11          Y11          Z11          X12          Y12          Z12          X13          Y13          Z13          X14          Y14          Z14          X15          Y15          Z15          X16          Y16          Z16          X17          Y17          Z17          X18          Y18          Z18          X19          Y19          Z19          X20          Y20          Z20          X21          Y21          Z21          X22          Y22          Z22          X23          Y23          Z23          X24          Y24          Z24          X25          Y25          Z25          X26          Y26          Z26          X27          Y27          Z27          X28          Y28          Z28          X29          Y29          Z29          X30          Y30          Z30          X31          Y31          Z31          X32          Y32          Z32          X33          Y33          Z33          X34          Y34          Z34          X35          Y35          Z35          X36          Y36          Z36          X37          Y37          Z37          

	79	0.77500	2060.812	773.419	-275.895	2052.055	769.991	-219.243	2069.570	776.847	-332.547	2009.846	427.561	-215.142	2133.972	431.031	-336.115	2015.354	66.405	-234.830	1959.475	119.012	-324.186	2096.071	845.093	-267.026	2094.529	844.477	-155.492	2097.612	845.708	-378.560	1920.650	876.120	-242.663	1925.425	873.992	-295.983	2046.052	421.079	-155.502	2136.985	419.605	-395.007	2027.249	427.058	-276.259	2152.401	424.796	-276.156	2008.755	64.661	-197.957	1950.292	122.671	-359.322	2016.398	62.780	-268.239	1959.067	121.902	-290.633	2106.348	1189.534	-274.218	2105.478	1087.617	-281.610	2005.420	1269.307	-267.822	2095.664	47.194	-224.634	2031.043	69.378	-332.130	2163.547	561.332	-178.641	2212.923	598.766	-404.664	2109.502	599.178	-143.254	2177.200	637.005	-340.151	2096.822	542.419	-150.055	2186.228	578.388	-332.886	2139.805	177.816	-200.100	1993.086	214.770	-452.216	2061.852	166.038	-219.519	1996.126	206.451	-372.736	2107.785	1186.886	-218.439	2110.450	1191.895	-323.706
	80	0.78333	2069.271	773.287	-276.006	2060.502	769.659	-219.368	2078.040	776.916	-332.644	2013.998	427.603	-215.225	2144.367	431.932	-335.972	2015.542	66.517	-235.045	1985.523	112.676	-325.139	2104.588	844.953	-266.813	2103.053	843.965	-155.280	2106.123	845.941	-378.345	1929.625	876.020	-242.575	1933.542	874.096	-295.933	2049.294	420.873	-155.578	2150.088	420.868	-394.862	2031.159	426.937	-276.169	2163.285	426.571	-275.352	2008.952	64.813	-198.168	1976.084	116.130	-360.228	2016.533	63.416	-268.539	1984.939	115.689	-291.549	2115.351	1189.633	-274.544	2114.406	1087.708	-281.813	2014.561	1269.388	-267.630	2095.650	47.051	-224.800	2059.624	67.132	-334.102	2168.812	559.685	-178.856	2223.279	600.543	-405.080	2115.527	598.140	-143.412	2188.068	638.172	-340.776	2102.292	541.649	-150.163	2197.019	579.935	-333.210	2140.862	176.769	-200.368	2014.736	210.599	-452.712	2063.326	166.294	-219.599	2018.031	202.021	-373.538	2117.062	1187.060	-218.993	2119.209	1191.925	-323.829
	81	0.79167	2077.698	773.053	-276.209	2068.919	769.267	-219.583	2086.477	776.840	-332.836	2017.907	427.487	-215.411	2152.645	433.901	-335.905	2015.698	66.602	-235.292	2012.142	106.443	-326.280	2113.123	844.659	-266.702	2111.610	843.372	-155.143	2114.635	845.947	-378.262	1938.559	875.826	-242.495	1941.627	874.130	-295.865	2052.657	420.645	-155.711	2162.752	421.999	-394.744	2034.977	426.177	-275.497	2172.450	427.707	-276.185	2009.120	64.941	-198.411	2002.393	109.696	-361.304	2016.325	65.162	-269.002	2011.215	109.370	-292.621	2124.246	1189.389	-274.969	2123.091	1087.430	-281.713	2023.485	1269.428	-267.335	2095.645	46.919	-224.997	2088.479	64.974	-336.146	2174.193	558.029	-179.090	2233.386	601.962	-405.468	2121.305	597.062	-143.799	2199.140	639.107	-340.797	2107.525	540.942	-150.195	2207.442	581.172	-333.604	2141.992	175.699	-200.671	2036.420	206.443	-453.278	2065.399	167.291	-219.147	2040.067	197.634	-374.165	2126.164	1187.084	-219.118	2127.921	1191.435	-324.575
	82	0.80000	2086.117	772.700	-276.361	2077.351	768.817	-219.739	2094.882	776.582	-332.983	2021.285	427.693	-215.663	2162.937	434.580	-335.872	2015.843	66.659	-235.572	2039.294	100.462	-327.579	2121.677	844.236	-266.671	2120.208	842.726	-155.067	2123.147	845.747	-378.275	1947.438	875.556	-242.426	1949.877	874.050	-295.763	2056.126	420.397	-155.881	2174.978	422.978	-394.653	2038.184	425.467	-274.299	2182.905	428.289	-276.731	2009.275	65.045	-198.687	2029.192	103.501	-362.522	2016.087	64.837	-269.190	2037.559	102.607	-293.769	2133.033	1188.867	-275.433	2131.561	1086.902	-282.013	2032.432	1269.267	-267.230	2095.666	46.824	-225.209	2117.581	62.982	-338.245	2179.700	556.372	-179.296	2243.235	603.032	-405.803	2127.116	595.968	-144.163	2209.058	639.807	-341.152	2112.644	540.400	-150.040	2217.495	581.896	-334.029	2143.202	174.602	-200.988	2058.162	202.354	-453.895	2065.948	165.896	-219.120	2062.028	193.102	-374.034	2135.045	1186.643	-219.522	2136.624	1190.826	-325.109
	83	0.80833	2094.508	772.216	-276.419	2085.782	768.300	-219.794	2103.234	776.131	-333.045	2025.429	427.901	-215.897	2175.814	433.298	-335.834	2015.999	66.700	-235.876	2066.907	94.868	-328.999	2130.258	843.706	-266.694	2128.850	842.042	-155.043	2131.667	845.371	-378.346	1956.261	875.207	-242.365	1958.351	873.836	-295.643	2059.692	420.139	-156.060	2186.772	423.780	-394.585	2042.167	425.575	-274.029	2195.294	428.999	-274.978	2009.437	65.134	-198.987	2056.430	97.665	-363.851	2016.853	63.445	-269.300	2064.883	96.174	-295.094	2141.815	1188.313	-275.877	2140.181	1086.354	-282.523	2041.578	1268.683	-267.572	2095.730	46.789	-225.414	2146.886	61.242	-340.384	2185.338	554.733	-179.417	2252.812	603.759	-406.078	2132.979	595.227	-143.942	2217.693	640.271	-341.803	2117.926	539.626	-149.847	2227.216	582.482	-333.947	2144.477	173.469	-201.301	2079.993	198.380	-454.556	2067.000	164.187	-219.914	2084.509	188.417	-374.346	2144.012	1186.054	-220.153	2145.241	1190.294	-325.386
	84	0.81667	2102.980	771.612	-276.466	2094.307	767.689	-219.833	2111.653	775.534	-333.099	2030.540	427.838	-216.080	2188.020	432.835	-335.781	2016.173	66.741	-236.187	2094.888	89.781	-330.498	2138.875	843.082	-266.751	2137.538	841.320	-155.067	2140.211	844.845	-378.435	1965.016	874.777	-242.293	1966.903	873.493	-295.548	2063.356	419.876	-156.219	2198.150	424.384	-394.539	2047.505	425.823	-274.783	2207.372	429.053	-274.796	2009.614	65.223	-199.296	2084.034	92.297	-365.256	2018.389	60.511	-269.132	2093.407	90.742	-296.605	2150.737	1187.630	-276.397	2149.097	1085.653	-282.753	2050.584	1267.946	-267.797	2095.842	46.821	-225.595	2176.332	59.852	-342.539	2191.106	553.131	-179.397	2262.110	604.145	-406.298	2138.953	594.730	-143.653	2226.069	640.642	-341.879	2123.451	538.581	-149.926	2236.623	582.964	-333.930	2145.796	172.297	-201.604	2101.937	194.571	-455.264	2067.981	161.444	-221.414	2107.767	183.984	-375.623	2153.121	1185.523	-220.575	2153.998	1189.477	-326.022
	85	0.82500	2111.564	770.935	-276.538	2102.942	767.007	-219.897	2120.185	774.863	-333.178	2035.162	427.991	-216.232	2199.501	432.441	-335.711	2016.366	66.805	-236.487	2123.117	85.300	-332.030	2147.539	842.369	-266.833	2146.271	840.546	-155.143	2148.806	844.193	-378.522	1973.738	874.254	-242.218	1975.596	873.013	-295.472	2067.122	419.613	-156.340	2209.138	424.784	-394.520	2052.905	425.538	-275.690	2219.018	428.685	-275.295	2009.811	65.334	-199.593	2111.910	87.486	-366.698	2018.482	59.932	-269.335	2121.969	86.001	-298.123	2159.703	1186.791	-276.851	2157.933	1084.797	-282.890	2059.422	1267.421	-267.941	2096.004	46.907	-225.743	2205.849	58.910	-344.679	2197.001	551.569	-179.208	2271.125	604.192	-406.475	2145.172	593.841	-144.147	2234.475	640.594	-341.985	2128.987	537.600	-150.445	2245.878	583.196	-334.174	2147.150	171.093	-201.896	2124.007	190.977	-456.025	2068.345	160.670	-222.100	2130.931	179.862	-376.943	2162.146	1184.841	-220.690	2162.911	1188.493	-326.819
	86	0.83333	2120.235	770.186	-276.630	2111.648	766.245	-219.985	2128.822	774.128	-333.275	2038.162	428.901	-216.317	2209.983	431.012	-335.673	2016.586	66.913	-236.758	2151.465	81.498	-333.548	2156.265	841.570	-266.941	2155.046	839.702	-155.276	2157.484	843.439	-378.605	1982.431	873.662	-242.138	1984.316	872.405	-295.426	2070.997	419.350	-156.420	2219.774	424.981	-394.545	2056.493	425.160	-275.525	2228.937	429.174	-273.493	2010.036	65.489	-199.861	2139.949	83.301	-368.136	2017.191	63.210	-270.152	2150.179	81.952	-299.565	2168.634	1186.106	-277.141	2166.818	1084.119	-283.287	2068.346	1266.821	-268.431	2096.210	47.022	-225.861	2235.361	58.511	-346.762	2203.026	550.034	-178.851	2279.859	603.896	-406.628	2151.800	592.543	-144.900	2242.680	640.371	-342.771	2134.269	536.553	-150.783	2254.592	583.185	-334.189	2148.536	169.859	-202.166	2146.192	187.644	-456.853	2069.486	162.945	-221.272	2153.777	176.246	-378.051	2171.188	1184.095	-220.990	2171.744	1187.861	-327.112
	87	0.84167	2128.950	769.350	-276.771	2120.371	765.394	-220.125	2137.528	773.306	-333.416	2040.402	430.677	-216.332	2218.498	430.517	-335.698	2016.849	67.084	-236.982	2179.809	78.424	-335.012	2165.066	840.688	-267.072	2163.862	838.777	-155.453	2166.270	842.598	-378.691	1991.129	873.027	-242.078	1993.071	871.702	-295.418	2074.996	419.078	-156.470	2230.106	424.981	-394.641	2058.703	425.355	-274.068	2237.005	428.846	-273.508	2010.300	65.711	-200.084	2168.039	79.796	-369.535	2017.127	64.881	-270.600	2178.943	78.947	-301.069	2177.600	1185.620	-277.477	2175.931	1083.645	-283.863	2077.387	1266.025	-268.717	2096.449	47.143	-225.958	2264.776	58.745	-348.726	2209.191	548.506	-178.356	2288.327	603.257	-406.769	2159.041	591.731	-145.241	2250.692	640.234	-342.985	2139.514	535.386	-150.564	2262.745	582.583	-334.228	2149.948	168.590	-202.390	2168.449	184.618	-457.757	2071.306	164.087	-221.132	2177.238	173.514	-379.418	2180.328	1183.477	-221.324	2180.555	1187.501	-327.466
	88	0.85000	2137.724	768.422	-276.990	2129.127	764.450	-220.348	2146.321	772.394	-333.631	2043.595	431.775	-216.319	2226.261	430.287	-335.826	2017.169	67.326	-237.154	2208.027	76.107	-336.401	2173.942	839.716	-267.218	2172.714	837.768	-155.653	2175.170	841.663	-378.784	1999.827	872.379	-242.043	2001.767	870.948	-295.479	2079.143	418.785	-156.510	2240.181	424.782	-394.832	2062.130	424.987	-272.626	2244.937	427.030	-275.641	2010.610	66.014	-200.256	2196.060	77.005	-370.872	2018.300	63.865	-270.654	2207.940	76.674	-302.575	2186.424	1184.842	-277.840	2184.669	1082.852	-283.937	2086.526	1265.137	-268.500	2096.709	47.250	-226.044	2293.979	59.684	-350.511	2215.499	546.961	-177.774	2296.564	602.284	-406.904	2165.628	591.084	-145.375	2258.873	639.245	-342.734	2144.635	534.431	-150.144	2270.877	581.337	-334.620	2151.384	167.285	-202.550	2190.707	181.946	-458.732	2072.895	163.364	-222.253	2201.030	171.261	-380.755	2189.279	1182.847	-221.435	2189.266	1186.590	-328.095
	89	0.85833	2146.548	767.448	-277.263	2137.902	763.460	-220.631	2155.194	771.436	-333.896	2048.200	431.473	-216.326	2235.202	428.189	-336.132	2017.549	67.635	-237.279	2235.986	74.552	-337.721	2182.888	838.646	-267.374	2181.601	836.679	-155.859	2184.175	840.613	-378.889	2008.590	871.715	-242.099	2010.639	870.146	-295.587	2083.462	418.455	-156.553	2250.033	424.388	-395.127	2067.457	423.895	-272.325	2253.695	425.446	-275.747	2010.965	66.393	-200.382	2223.876	74.945	-372.151	2019.021	63.451	-270.696	2236.645	75.066	-304.010	2195.174	1183.680	-278.361	2193.162	1081.680	-284.225	2095.569	1264.147	-268.253	2096.975	47.329	-226.129	2322.830	61.371	-352.082	2221.936	545.376	-177.172	2304.632	601.002	-407.030	2171.208	589.803	-145.286	2266.965	637.261	-343.410	2149.842	533.613	-149.824	2279.086	579.934	-335.161	2152.856	165.956	-202.637	2212.874	179.676	-459.761	2074.309	162.776	-222.873	2224.644	169.239	-382.013	2198.141	1181.806	-222.021	2197.917	1185.305	-328.562
